HIERARCHY
ROOT Hips
{
	OFFSET 0.000000 0.000000 0.000000
	CHANNELS 6 Xposition Yposition Zposition Zrotation Yrotation Xrotation 
	JOINT LHipJoint
	{
		OFFSET 0.000000 0.000000 0.000000
		CHANNELS 3 Zrotation Yrotation Xrotation
		JOINT LeftUpLeg
		{
			OFFSET 1.363060 -1.794630 0.839290
			CHANNELS 3 Zrotation Yrotation Xrotation
			JOINT LeftLeg
			{
				OFFSET 2.448110 -6.726130 0.000000
				CHANNELS 3 Zrotation Yrotation Xrotation
				JOINT LeftFoot
				{
					OFFSET 2.562200 -7.039590 0.000000
					CHANNELS 3 Zrotation Yrotation Xrotation
					JOINT LeftToeBase
					{
						OFFSET 0.157640 -0.433110 2.322550
						CHANNELS 3 Zrotation Yrotation Xrotation
						End Site
						{
							OFFSET 0.000000 0.000000 0.000000
						}
					}
				}
			}
		}
	}
	JOINT RHipJoint
	{
		OFFSET 0.000000 0.000000 0.000000
		CHANNELS 3 Zrotation Yrotation Xrotation
		JOINT RightUpLeg
		{
			OFFSET -1.305520 -1.794630 0.839290
			CHANNELS 3 Zrotation Yrotation Xrotation
			JOINT RightLeg
			{
				OFFSET -2.542530 -6.985550 0.000000
				CHANNELS 3 Zrotation Yrotation Xrotation
				JOINT RightFoot
				{
					OFFSET -2.568260 -7.056230 0.000000
					CHANNELS 3 Zrotation Yrotation Xrotation
					JOINT RightToeBase
					{
						OFFSET -0.164730 -0.452590 2.363150
						CHANNELS 3 Zrotation Yrotation Xrotation
						End Site
						{
							OFFSET 0.000000 0.000000 0.000000
						}
					}
				}
			}
		}
	}
}
MOTION
Frames: 33
Frame Time: 0.008333
18.911060 17.062558 3.136412 123.837530 -88.359650 -101.520635 -8.837056 0.748095 4.160542 -11.248987 -5.393985 -42.734972 -2.501503 0.040449 22.060292 0.855233 3.588419 -4.812751 0.466400 -0.000000 -38.793699 11.451147 -3.812827 0.996456 1.633691 -3.600864 -9.519635 0.267723 -2.053330 29.329971 0.070960 12.918963 25.498617 7.001800 -0.000000 -92.270200
18.737252 17.000042 3.147087 119.986764 -88.475317 -98.074964 -8.785246 0.782478 4.100192 -11.239431 -5.740795 -42.996080 -2.309994 0.288691 25.067018 0.968494 3.962741 -5.792261 0.377200 0.000000 -36.442600 11.623648 -3.791357 0.873211 1.293060 -4.333465 -9.607742 0.183865 -2.135100 31.144105 0.017305 14.013823 26.371957 7.791100 -0.000000 -91.389300
18.565170 16.942392 3.156219 116.488050 -88.541689 -94.964613 -8.737570 0.817762 4.031596 -11.280529 -6.034695 -43.120577 -2.139287 0.505211 27.878092 1.088285 4.365766 -6.891901 0.264100 0.000001 -34.361200 11.789982 -3.751250 0.759853 0.926783 -4.993897 -9.784636 0.091273 -2.211151 33.035693 -0.053589 15.014142 27.358780 8.583901 0.000000 -89.976700
18.395048 16.891292 3.163284 113.777781 -88.543171 -92.624204 -8.695366 0.854781 3.957096 -11.385114 -6.270958 -43.070053 -2.000320 0.682348 30.360897 1.212258 4.790425 -8.080999 0.126900 -0.000001 -32.749100 11.945131 -3.693106 0.654246 0.529043 -5.584167 -10.058239 -0.007139 -2.283088 34.992769 -0.142092 15.836495 28.428245 9.326500 -0.000000 -88.032699
18.226707 16.848066 3.167968 112.163434 -88.473096 -91.358221 -8.658350 0.894331 3.878397 -11.561259 -6.443327 -42.824590 -1.899466 0.816797 32.429441 1.337970 5.223743 -9.328011 -0.034200 0.000000 -31.723300 12.086544 -3.619488 0.555426 0.098850 -6.111660 -10.434499 -0.108005 -2.353230 36.999613 -0.247246 16.382527 29.529407 9.942600 -0.000001 -85.612700
18.059879 16.813599 3.171064 111.815203 -88.354314 -91.326927 -8.635578 0.931669 3.798156 -11.780765 -6.528963 -42.404626 -1.836185 0.909420 34.056120 1.460234 5.633424 -10.601560 -0.217200 0.000000 -31.316900 12.202789 -3.539438 0.468552 -0.321705 -6.565217 -10.921336 -0.207879 -2.423646 39.032396 -0.367527 16.526633 30.604157 10.328400 0.000000 -82.840800
17.894542 16.788528 3.171872 112.562426 -88.172243 -92.376411 -8.614011 0.974190 3.713324 -12.063855 -6.536383 -41.777668 -1.811203 0.960476 35.202588 1.578653 6.022136 -11.852943 -0.415500 0.000000 -31.463600 12.306657 -3.447045 0.385196 -0.763265 -6.975512 -11.500497 -0.307590 -2.496388 41.073322 -0.502600 16.191920 31.589330 10.403399 0.000000 -79.921699
17.730523 16.773038 3.170821 114.179028 -87.938836 -94.286249 -8.592180 1.023762 3.623516 -12.395118 -6.460722 -40.949402 -1.819719 0.973196 35.877520 1.689562 6.376213 -13.032407 -0.620000 0.000000 -32.047800 12.399456 -3.342612 0.304322 -1.212407 -7.347035 -12.156440 -0.407621 -2.572251 43.096336 -0.652470 15.296536 32.415252 10.083800 -0.000000 -77.071300
17.567133 16.766862 3.169440 116.486372 -87.694021 -96.870431 -8.583762 1.074471 3.532030 -12.717295 -6.284295 -39.969382 -1.851994 0.953285 36.135448 1.785528 6.664907 -14.094455 -0.818200 0.000000 -32.917300 12.468161 -3.234621 0.232191 -1.604713 -7.660142 -12.883606 -0.507853 -2.650544 45.070972 -0.817578 13.771491 33.010889 9.301800 0.000000 -74.473100
17.404403 16.769577 3.167709 119.162854 -87.437644 -99.821032 -8.582608 1.130521 3.438222 -13.027170 -6.024572 -38.835900 -1.901711 0.905136 36.007337 1.863966 6.893107 -14.986633 -0.996401 0.000000 -33.895701 12.520425 -3.118902 0.163417 -1.948572 -7.929772 -13.655717 -0.609572 -2.731129 46.973104 -0.998578 11.634115 33.297507 8.058600 0.000000 -72.232300
17.241874 16.780430 3.166698 122.038549 -87.196787 -102.958336 -8.598071 1.188593 3.347764 -13.284585 -5.689423 -37.597997 -1.959022 0.835429 35.565801 1.919728 7.049560 -15.672324 -1.141500 0.000001 -34.829300 12.548834 -3.001278 0.101561 -2.203500 -8.148636 -14.468364 -0.712190 -2.812771 48.778414 -1.194467 8.940403 33.197036 6.400000 -0.000000 -70.322600
17.079741 16.798653 3.165216 124.697753 -86.951048 -105.890135 -8.610225 1.257830 3.255650 -13.525304 -5.321137 -36.218946 -2.020545 0.748417 34.833373 1.954683 7.165312 -16.113241 -1.245800 -0.000000 -35.609100 12.574660 -2.871723 0.033345 -2.426771 -8.348984 -15.273800 -0.815289 -2.897087 50.461698 -1.402457 5.848642 32.644486 4.459400 0.000000 -68.688401
16.917324 16.823215 3.164885 127.165189 -86.747257 -108.612422 -8.639822 1.328792 3.174581 -13.686759 -4.926803 -34.797165 -2.075792 0.652720 33.916656 1.964367 7.221517 -16.308205 -1.302300 0.000000 -36.179500 12.578776 -2.744586 -0.029811 -2.544348 -8.509203 -16.096940 -0.915782 -2.981701 52.002636 -1.616346 2.522455 31.606143 2.387800 -0.000000 -67.124800
16.754993 16.853226 3.165107 129.225873 -86.586020 -110.912848 -8.678553 1.404483 3.105376 -13.782718 -4.540382 -33.342840 -2.122016 0.553643 32.863500 1.951634 7.236644 -16.260780 -1.311800 0.000000 -36.532601 12.570100 -2.618436 -0.092574 -2.578985 -8.645491 -16.920072 -1.010789 -3.066420 53.380752 -1.828136 -0.809963 30.092716 0.381901 -0.000000 -65.475500
16.592623 16.887797 3.165803 130.784597 -86.480114 -112.685710 -8.726098 1.484187 3.051753 -13.810005 -4.183424 -31.894055 -2.156903 0.456499 31.733165 1.919049 7.216537 -15.996163 -1.278300 -0.000000 -36.700300 12.549239 -2.496422 -0.153091 -2.528881 -8.760919 -17.745103 -1.096526 -3.149078 54.579454 -2.028548 -3.939019 28.166735 -1.386800 0.000000 -63.641101
16.430375 16.926128 3.166615 131.756072 -86.437070 -113.838365 -8.780356 1.567497 3.015185 -13.772547 -3.871398 -30.480806 -2.180511 0.365130 30.571275 1.870153 7.165652 -15.551207 -1.209199 -0.000000 -36.744100 12.518031 -2.380126 -0.209812 -2.399079 -8.859205 -18.573828 -1.169080 -3.226912 55.587450 -2.208063 -6.693663 25.933033 -2.796800 0.000001 -61.553200
16.268290 16.967503 3.167309 132.082362 -86.462671 -114.304704 -8.840130 1.653527 2.996297 -13.674111 -3.610547 -29.132806 -2.194157 0.281973 29.414389 1.808519 7.084428 -14.969651 -1.113100 0.000001 -36.745499 12.477174 -2.270283 -0.259457 -2.193514 -8.940436 -19.413382 -1.224904 -3.296207 56.398025 -2.358743 -8.967916 23.528596 -3.798400 -0.000000 -59.302700
16.106799 17.011302 3.167509 131.693114 -86.555258 -114.010621 -8.903003 1.741871 2.993161 -13.523225 -3.399168 -27.866334 -2.200425 0.207852 28.282597 1.737518 6.972561 -14.293673 -0.998900 0.000001 -36.797000 12.428611 -2.165913 -0.300173 -1.922419 -9.006440 -20.267676 -1.261580 -3.353991 57.011032 -2.474180 -10.715250 21.092165 -4.404800 -0.000000 -57.014800
15.945994 17.056932 3.166948 130.518779 -86.708387 -112.886324 -8.967449 1.832082 3.001827 -13.328160 -3.226996 -26.686520 -2.202106 0.142500 27.183449 1.659629 6.828232 -13.558343 -0.874300 -0.000000 -36.992800 12.373876 -2.065457 -0.331651 -1.598177 -9.060197 -21.137626 -1.278072 -3.398532 57.432147 -2.549871 -11.937995 18.743376 -4.673300 -0.000000 -54.803900
15.786148 17.103871 3.165451 128.467053 -86.909951 -110.840062 -9.032325 1.923909 3.020337 -13.097093 -3.084554 -25.600789 -2.201435 0.085079 26.118019 1.577108 6.652646 -12.787570 -0.745101 -0.000000 -37.414000 12.314114 -1.966516 -0.352677 -1.231712 -9.104255 -22.032633 -1.274957 -3.429025 57.673918 -2.583953 -12.674506 16.571222 -4.682300 0.000000 -52.783700
15.627687 17.151665 3.163070 125.512937 -87.146856 -107.861929 -9.101123 2.015523 3.038452 -12.831838 -2.940803 -24.588685 -2.200257 0.034881 25.076926 1.489507 6.438025 -11.994848 -0.615100 -0.000000 -38.123500 12.247124 -1.868254 -0.366814 -0.830891 -9.136801 -22.934084 -1.253467 -3.445474 57.737475 -2.578896 -12.995052 14.652440 -4.520000 0.000001 -51.254800
15.470563 17.199805 3.160050 121.617526 -87.406180 -103.918506 -9.178651 2.105703 3.051455 -12.531256 -2.772050 -23.644712 -2.198916 -0.008596 24.056786 1.396466 6.179272 -11.182917 -0.486500 -0.000000 -39.152099 12.169703 -1.771384 -0.375168 -0.397619 -9.157968 -23.840118 -1.215308 -3.449019 57.635066 -2.537820 -12.970985 13.003241 -4.254600 -0.000000 -50.248800
15.314569 17.247775 3.156149 116.603249 -87.662067 -98.829654 -9.261356 2.196511 3.062290 -12.213180 -2.588277 -22.766147 -2.197259 -0.046427 23.046790 1.301182 5.895893 -10.340194 -0.360299 0.000000 -40.465500 12.085337 -1.671626 -0.377596 0.046772 -9.176458 -24.765939 -1.162600 -3.441635 57.385826 -2.465193 -12.669032 11.602862 -3.932900 0.000000 -49.671100
15.160057 17.295134 3.152141 110.562137 -87.915813 -92.711624 -9.363404 2.282604 3.057982 -11.856718 -2.339555 -21.930118 -2.193619 -0.077309 22.053687 1.199425 5.562833 -9.461853 -0.237800 -0.000000 -42.036600 11.982967 -1.576118 -0.378597 0.520701 -9.181567 -25.677176 -1.095585 -3.424781 56.984390 -2.369444 -12.177782 10.431492 -3.597900 -0.000000 -49.595500
15.006542 17.341402 3.147692 103.314550 -88.142551 -85.379771 -9.479220 2.366286 3.043940 -11.483269 -2.050132 -21.132890 -2.186820 -0.101837 21.072434 1.095418 5.206123 -8.530255 -0.119400 -0.000000 -43.760700 11.867221 -1.481108 -0.377708 1.001151 -9.182509 -26.586329 -1.015199 -3.400575 56.444330 -2.257315 -11.558835 9.433560 -3.267400 -0.000001 -49.875700
14.853880 17.386150 3.143055 94.846785 -88.337820 -76.829143 -9.613041 2.445204 3.017173 -11.088516 -1.710674 -20.365044 -2.174932 -0.119205 20.114188 0.989126 4.822704 -7.538841 -0.007300 -0.000000 -45.548300 11.734476 -1.390377 -0.375841 1.491622 -9.174917 -27.478932 -0.920927 -3.370465 55.764895 -2.136870 -10.879302 8.558280 -2.956601 0.000000 -50.402300
14.698546 17.428917 3.145128 59.162775 -88.353052 -40.937885 -9.838256 2.571512 3.235995 -10.268639 -2.190970 -20.043914 -2.097374 -0.074638 19.559424 0.893906 4.407177 -6.579718 0.089000 0.000000 -47.325900 11.490566 -1.250170 -0.541920 2.403850 -9.993301 -28.368223 -0.779957 -3.281029 54.792348 -2.001248 -10.197815 7.761489 -2.685800 0.000000 -50.995700
14.546655 17.469550 3.139669 49.084925 -88.307589 -30.783977 -10.011399 2.621599 3.190604 -9.852197 -1.788607 -19.326157 -2.066697 -0.083394 18.689672 0.788265 3.988136 -5.471270 0.179900 0.000000 -48.965900 11.317828 -1.191533 -0.533791 2.894642 -9.970115 -29.219102 -0.650366 -3.250682 53.833153 -1.884329 -9.541173 6.992036 -2.432899 0.000000 -51.566500
14.394557 17.507574 3.133324 39.990497 -88.223733 -21.614060 -10.180330 2.665107 3.139033 -9.432367 -1.381886 -18.629282 -2.030618 -0.087039 17.876170 0.687089 3.568923 -4.315282 0.257200 -0.000001 -50.445000 11.146032 -1.142365 -0.517391 3.375038 -9.928575 -30.038462 -0.506610 -3.216210 52.733621 -1.777170 -8.944922 6.229420 -2.212600 0.000000 -51.956300
14.241803 17.542810 3.125839 32.100993 -88.113263 -13.643497 -10.339916 2.706449 3.083915 -9.013241 -0.981756 -17.958463 -1.991340 -0.084919 17.126538 0.592615 3.155401 -3.132422 0.318401 0.000000 -51.748100 10.979076 -1.098463 -0.488740 3.839796 -9.854934 -30.821063 -0.350970 -3.173878 51.493809 -1.682889 -8.424859 5.465227 -2.025200 -0.000001 -52.077100
14.088096 17.575080 3.116746 25.584572 -87.983055 -7.035160 -10.485872 2.749560 3.029166 -8.605796 -0.604997 -17.318566 -1.951044 -0.077335 16.441414 0.507528 2.759653 -1.946455 0.362700 0.000000 -52.888300 10.819890 -1.054794 -0.443129 4.275050 -9.737025 -31.567091 -0.186240 -3.120622 50.118771 -1.602670 -7.982570 4.704985 -1.868600 -0.000000 -51.896800
13.933143 17.604288 3.105757 20.407408 -87.841041 -1.749688 -10.616987 2.796061 2.977046 -8.216742 -0.260308 -16.713961 -1.911305 -0.065306 15.818715 0.433129 2.387913 -0.783019 0.390399 0.000000 -53.910000 10.668947 -1.008642 -0.375997 4.670680 -9.561003 -32.276569 -0.015055 -3.054196 48.614012 -1.536350 -7.612071 3.965041 -1.740300 0.000000 -51.443700
13.776512 17.630367 3.092420 16.542247 -87.691734 2.248541 -10.731156 2.846550 2.930538 -7.855855 0.041334 -16.146806 -1.873378 -0.051040 15.250207 0.370300 2.049981 0.336466 0.403700 0.000000 -54.876700 10.527930 -0.958537 -0.282138 5.012040 -9.316334 -32.954888 0.159870 -2.973652 46.989168 -1.482373 -7.299745 3.265777 -1.636800 0.000000 -50.798200
